<svg width="42.000000" height="42.000000" viewBox="0 0 42 42" fill="none" xmlns="http://www.w3.org/2000/svg" xmlns:xlink="http://www.w3.org/1999/xlink">
	<desc>
			Created with Pixso.
	</desc>
	<defs/>
	<rect id="Frame 121" rx="9.500000" width="41.000000" height="41.000000" transform="translate(0.500000 0.500000)" fill="#B54A3E" fill-opacity="0.700000"/>
	<path id="18+" d="M17.33 27.24C17.99 27.56 18.73 27.72 19.54 27.72Q20.77 27.72 21.74 27.24C22.4 26.91 22.92 26.47 23.29 25.91C23.66 25.33 23.85 24.7 23.85 24.02Q23.85 23.37 23.61 22.81Q23.49 22.51 23.29 22.23C22.93 21.71 22.47 21.3 21.9 21.01L21.9 20.9Q22.29 20.64 22.59 20.31Q22.82 20.07 23 19.79C23.29 19.33 23.43 18.84 23.43 18.31Q23.43 17.72 23.24 17.19Q23.12 16.85 22.93 16.54C22.6 16.01 22.14 15.59 21.54 15.29C20.95 14.99 20.29 14.84 19.54 14.84C18.8 14.84 18.13 14.99 17.53 15.29C16.94 15.59 16.48 16.01 16.14 16.54Q15.97 16.82 15.86 17.12Q15.66 17.68 15.66 18.31C15.66 18.84 15.8 19.33 16.09 19.79Q16.27 20.07 16.49 20.31Q16.8 20.64 17.19 20.9L17.19 21.01C16.62 21.3 16.15 21.71 15.78 22.23Q15.61 22.48 15.49 22.75Q15.24 23.33 15.24 24.02Q15.24 24.52 15.38 24.99Q15.52 25.47 15.8 25.91C16.17 26.47 16.68 26.91 17.33 27.24ZM8.83 19.26L10.85 17.81L10.85 27.44L12.83 27.44L12.83 15.12L11.44 15.12L7.82 17.73L8.83 19.26ZM20.91 19.64C20.55 19.95 20.1 20.11 19.54 20.11C18.99 20.11 18.53 19.95 18.16 19.64C17.8 19.32 17.62 18.89 17.62 18.36Q17.62 17.87 17.83 17.51Q17.96 17.3 18.16 17.14C18.52 16.83 18.98 16.67 19.54 16.67Q20.24 16.67 20.73 16.99Q20.84 17.06 20.93 17.14Q21.13 17.3 21.25 17.51Q21.47 17.87 21.47 18.36C21.47 18.89 21.28 19.32 20.91 19.64ZM30.69 23.4L33.86 23.4L33.86 21.71L30.69 21.71L30.69 18.54L28.98 18.54L28.98 21.71L25.81 21.71L25.81 23.4L28.98 23.4L28.98 26.57L30.69 26.57L30.69 23.4ZM20.95 25.48Q20.36 25.85 19.54 25.85Q18.74 25.85 18.15 25.5Q18.01 25.41 17.89 25.31Q17.59 25.06 17.43 24.74Q17.24 24.35 17.24 23.87Q17.24 23.43 17.41 23.06Q17.57 22.72 17.89 22.45Q18.04 22.32 18.21 22.22Q18.78 21.89 19.54 21.89Q20.33 21.89 20.89 22.24Q21.05 22.33 21.18 22.45Q21.52 22.73 21.69 23.09Q21.85 23.45 21.85 23.87Q21.85 24.33 21.67 24.7Q21.5 25.04 21.18 25.31Q21.07 25.4 20.95 25.48Z" fill="#F9FBFF" fill-opacity="1.000000" fill-rule="evenodd"/>
</svg>
