<svg width="165.000000" height="165.000000" viewBox="0 0 165 165" fill="none" xmlns="http://www.w3.org/2000/svg" xmlns:xlink="http://www.w3.org/1999/xlink">
	<desc>
			Created with Pixso.
	</desc>
	<defs/>
	<g opacity="0.280000">
		<path id="Vector" d="M125.9 46.34C127.63 44.62 127.63 41.82 125.9 40.09C124.17 38.37 121.38 38.37 119.65 40.09L110.81 48.93L108.22 51.52L102.51 45.81C99.06 42.36 93.45 42.36 90.01 45.81L85.59 50.23C85.24 50.58 84.95 50.96 84.67 51.35C78.67 48.98 72.15 47.64 65.32 47.64C36.07 47.64 12.28 71.43 12.28 100.67C12.28 129.92 36.07 153.71 65.32 153.71C94.56 153.71 118.35 129.92 118.35 100.67C118.35 93.84 117.01 87.32 114.65 81.32C115.03 81.04 115.42 80.75 115.76 80.41L120.18 75.99C123.64 72.54 123.64 66.94 120.18 63.49L114.47 57.77L117.06 55.18L125.9 46.34ZM65.32 74.16C50.7 74.16 38.8 86.05 38.8 100.67C38.8 103.12 36.82 105.09 34.38 105.09C31.94 105.09 29.96 103.12 29.96 100.67C29.96 81.18 45.82 65.32 65.32 65.32C67.76 65.32 69.74 67.3 69.74 69.74C69.74 72.18 67.76 74.16 65.32 74.16Z" fill="#F9FBFF" fill-opacity="1.000000" fill-rule="nonzero"/>
		<path id="Vector" d="M139.08 53.43C137.35 51.71 134.55 51.71 132.83 53.43C131.1 55.16 131.1 57.96 132.83 59.68L137.25 64.1C138.11 64.97 139.24 65.4 140.37 65.4C141.5 65.4 142.63 64.97 143.5 64.1C145.22 62.38 145.22 59.58 143.5 57.85L139.08 53.43Z" fill="#F9FBFF" fill-opacity="1.000000" fill-rule="nonzero"/>
		<path id="Vector" d="M106.31 33.17C107.17 34.03 108.3 34.46 109.43 34.46C110.56 34.46 111.69 34.03 112.56 33.17C114.28 31.44 114.28 28.64 112.56 26.92L108.14 22.5C106.41 20.77 103.62 20.77 101.89 22.5C100.16 24.22 100.16 27.02 101.89 28.75L106.31 33.17Z" fill="#F9FBFF" fill-opacity="1.000000" fill-rule="nonzero"/>
		<path id="Vector" d="M122.77 29.96C125.22 29.96 127.19 27.98 127.19 25.54L127.19 16.7C127.19 14.26 125.22 12.28 122.77 12.28C120.33 12.28 118.35 14.26 118.35 16.7L118.35 25.54C118.35 27.98 120.33 29.96 122.77 29.96Z" fill="#F9FBFF" fill-opacity="1.000000" fill-rule="nonzero"/>
		<path id="Vector" d="M149.29 38.96L140.45 38.96C138.01 38.96 136.03 40.94 136.03 43.38C136.03 45.82 138.01 47.8 140.45 47.8L149.29 47.8C151.73 47.8 153.71 45.82 153.71 43.38C153.71 40.94 151.73 38.96 149.29 38.96Z" fill="#F9FBFF" fill-opacity="1.000000" fill-rule="nonzero"/>
		<path id="Vector" d="M132.99 33.17C133.85 34.03 134.98 34.46 136.11 34.46C137.24 34.46 138.37 34.03 139.24 33.17L148.08 24.33C149.8 22.6 149.8 19.8 148.08 18.08C146.35 16.35 143.55 16.35 141.83 18.08L132.99 26.92C131.26 28.64 131.26 31.44 132.99 33.17Z" fill="#F9FBFF" fill-opacity="1.000000" fill-rule="nonzero"/>
	</g>
</svg>
