<svg width="150.000000" height="150.000000" viewBox="0 0 150 150" fill="none" xmlns="http://www.w3.org/2000/svg" xmlns:xlink="http://www.w3.org/1999/xlink">
	<desc>
			Created with Pixso.
	</desc>
	<defs/>
	<g opacity="0.280000">
		<rect id="Component 4" rx="0.000000" width="149.000000" height="149.000000" transform="translate(0.500000 0.500000)" fill="#FFFFFF" fill-opacity="0"/>
		<path id="Vector" d="M55.92 72.14L55.92 57.47L17.24 57.47C7.72 57.47 0 65.19 0 74.72L0 129.62C0 139.14 7.72 146.86 17.24 146.86L72.14 146.86C81.69 146.86 89.41 139.14 89.41 129.62L89.41 94.07L77.85 94.07C65.75 94.07 55.92 84.24 55.92 72.14ZM22.98 90.9C17.21 90.9 12.54 86.23 12.54 80.46C12.54 74.69 17.21 70.01 22.98 70.01C28.75 70.01 33.43 74.69 33.43 80.46C33.43 86.23 28.75 90.9 22.98 90.9ZM44.69 112.62C38.92 112.62 34.25 107.95 34.25 102.18C34.25 96.41 38.92 91.73 44.69 91.73C50.46 91.73 55.15 96.41 55.15 102.18C55.15 107.95 50.46 112.62 44.69 112.62ZM66.41 134.34C60.64 134.34 55.97 129.67 55.97 123.9C55.97 118.13 60.64 113.44 66.41 113.44C72.18 113.44 76.86 118.13 76.86 123.9C76.86 129.67 72.18 134.34 66.41 134.34Z" fill="#FFFFFF" fill-opacity="1.000000" fill-rule="nonzero"/>
		<path id="Vector" d="M132.75 0L77.84 0C68.32 0 60.6 7.72 60.6 17.24C60.6 16.05 60.6 70.95 60.6 72.15C60.6 81.67 68.32 89.39 77.84 89.39L132.75 89.39C142.27 89.39 150 81.67 150 72.15L150 17.24C150 7.72 142.27 0 132.75 0ZM83.57 76.85C77.8 76.85 73.13 72.17 73.13 66.4C73.13 60.63 77.8 55.96 83.57 55.96C89.34 55.96 94.03 60.63 94.03 66.4C94.03 72.17 89.34 76.85 83.57 76.85ZM83.57 33.43C77.8 33.43 73.13 28.76 73.13 22.99C73.13 17.21 77.8 12.53 83.57 12.53C89.34 12.53 94.03 17.21 94.03 22.99C94.03 28.76 89.34 33.43 83.57 33.43ZM105.29 55.14C99.52 55.14 94.85 50.47 94.85 44.7C94.85 38.93 99.52 34.25 105.29 34.25C111.06 34.25 115.74 38.93 115.74 44.7C115.74 50.47 111.06 55.14 105.29 55.14ZM127.01 12.53C132.78 12.53 137.46 17.2 137.46 22.97C137.46 28.74 132.78 33.42 127.01 33.42C121.23 33.42 116.57 28.74 116.57 22.97C116.57 17.2 121.23 12.53 127.01 12.53ZM127.01 76.86C121.23 76.86 116.57 72.19 116.57 66.42C116.57 60.65 121.23 55.96 127.01 55.96C132.78 55.96 137.46 60.65 137.46 66.42C137.46 72.19 132.78 76.86 127.01 76.86Z" fill="#FFFFFF" fill-opacity="1.000000" fill-rule="nonzero"/>
	</g>
</svg>
