<svg width="19.800781" height="19.799988" viewBox="0 0 19.8008 19.8" fill="none" xmlns="http://www.w3.org/2000/svg" xmlns:xlink="http://www.w3.org/1999/xlink">
	<defs>
		<clipPath id="clip10_6784">
			<rect id="Component 6" rx="0.000000" width="18.900000" height="18.900000" transform="translate(0.450000 0.450000)" fill="white" fill-opacity="0"/>
		</clipPath>
	</defs>
	<rect id="Component 6" rx="0.000000" width="18.900000" height="18.900000" transform="translate(0.450000 0.450000)" fill="#FFFFFF" fill-opacity="0"/>
	<g clip-path="url(#clip10_6784)">
		<path id="Vector" d="M17.37 10.61C17.77 10.21 17.77 9.57 17.37 9.18L13.31 5.14C12.91 4.74 12.27 4.74 11.87 5.14C11.47 5.53 11.47 6.17 11.87 6.57L14.2 8.88L7.51 8.88C6.95 8.88 6.49 9.34 6.49 9.89C6.49 10.45 6.95 10.91 7.51 10.91L14.2 10.91L11.87 13.22C11.47 13.62 11.47 14.26 11.87 14.65C12.27 15.05 12.91 15.05 13.31 14.65L17.37 10.61L17.37 10.61ZM6.49 4.84C7.05 4.84 7.51 4.39 7.51 3.83C7.51 3.27 7.05 2.82 6.49 2.82L4.46 2.82C2.78 2.82 1.41 4.18 1.41 5.85L1.41 13.94C1.41 15.61 2.78 16.97 4.46 16.97L6.49 16.97C7.05 16.97 7.51 16.52 7.51 15.96C7.51 15.4 7.05 14.95 6.49 14.95L4.46 14.95C3.9 14.95 3.44 14.49 3.44 13.94L3.44 5.85C3.44 5.3 3.9 4.84 4.46 4.84L6.49 4.84Z" fill="#943428" fill-opacity="1.000000" fill-rule="nonzero"/>
	</g>
</svg>
