<svg width="20.000000" height="20.000000" viewBox="0 0 20 20" fill="none" xmlns="http://www.w3.org/2000/svg" xmlns:xlink="http://www.w3.org/1999/xlink">
	<desc>
			Created with Pixso.
	</desc>
	<defs>
		<clipPath id="clip1_2618">
			<rect id="Component 9" rx="0.000000" width="19.285713" height="19.285713" transform="translate(0.357143 0.357143)" fill="white" fill-opacity="0"/>
		</clipPath>
	</defs>
	<rect id="Component 9" rx="0.000000" width="19.285713" height="19.285713" transform="translate(0.357143 0.357143)" fill="#FFFFFF" fill-opacity="0"/>
	<g clip-path="url(#clip1_2618)">
		<path id="Vector" d="M10 17C11.85 17 13.63 16.26 14.95 14.94C16.26 13.63 17 11.85 17 10C17 8.14 16.26 6.36 14.95 5.05C13.63 3.73 11.85 3 10 3C8.14 3 6.36 3.73 5.04 5.05C3.73 6.36 3 8.14 3 10C3 11.85 3.73 13.63 5.04 14.94C6.36 16.26 8.14 17 10 17ZM7.64 7.51C7.85 6.91 8.43 6.5 9.08 6.5L10.68 6.5C11.63 6.5 12.4 7.27 12.4 8.22C12.4 8.84 12.07 9.41 11.53 9.72L10.65 10.22C10.65 10.58 10.35 10.87 10 10.87C9.63 10.87 9.34 10.58 9.34 10.21L9.34 9.84C9.34 9.61 9.46 9.39 9.67 9.28L10.88 8.58C11.01 8.51 11.09 8.37 11.09 8.22C11.09 7.99 10.9 7.81 10.68 7.81L9.08 7.81C8.99 7.81 8.91 7.87 8.88 7.96L8.87 7.99C8.75 8.33 8.37 8.51 8.03 8.39C7.69 8.27 7.51 7.89 7.63 7.55L7.64 7.52L7.64 7.51ZM9.12 12.62C9.12 12.39 9.21 12.17 9.38 12C9.54 11.84 9.76 11.75 10 11.75C10.23 11.75 10.45 11.84 10.61 12C10.78 12.17 10.87 12.39 10.87 12.62C10.87 12.85 10.78 13.07 10.61 13.24C10.45 13.4 10.23 13.5 10 13.5C9.76 13.5 9.54 13.4 9.38 13.24C9.21 13.07 9.12 12.85 9.12 12.62Z" fill="#FFFFFF" fill-opacity="1.000000" fill-rule="nonzero"/>
	</g>
</svg>
