<svg width="28.000000" height="28.000000" viewBox="0 0 28 28" fill="none" xmlns="http://www.w3.org/2000/svg" xmlns:xlink="http://www.w3.org/1999/xlink">
	<defs>
		<clipPath id="clip10_1986">
			<rect id="Component 9" rx="0.000000" width="27.000000" height="27.000000" transform="translate(0.500000 0.500000)" fill="white" fill-opacity="0"/>
		</clipPath>
	</defs>
	<rect id="Component 9" rx="0.000000" width="27.000000" height="27.000000" transform="translate(0.500000 0.500000)" fill="#FFFFFF" fill-opacity="0"/>
	<g clip-path="url(#clip10_1986)">
		<path id="Vector" d="M10.82 2.25C11.2 1.91 11.79 1.91 12.18 2.25C13.53 3.47 14.81 4.78 15.99 6.19C16.53 5.52 17.15 4.78 17.81 4.18C18.2 3.83 18.8 3.83 19.19 4.19C20.88 5.73 22.32 7.78 23.33 9.72C24.33 11.63 25 13.58 25 14.96C25 20.94 20.09 26 14 26C7.83 26 3 20.94 3 14.96C3 13.16 3.87 10.96 5.22 8.78C6.59 6.58 8.53 4.27 10.82 2.25ZM14.08 21.5C15.32 21.5 16.42 21.17 17.46 20.51C19.52 19.13 20.08 16.38 18.84 14.21C18.62 13.79 18.05 13.76 17.73 14.12L16.5 15.49C16.17 15.85 15.59 15.84 15.28 15.47C14.47 14.48 13.02 12.73 12.2 11.73C11.89 11.35 11.3 11.35 10.98 11.72C9.33 13.71 8.49 14.97 8.49 16.38C8.5 19.59 10.98 21.5 14.08 21.5Z" fill="#F9FBFF" fill-opacity="1.000000" fill-rule="nonzero"/>
	</g>
</svg>
