<svg width="28.000000" height="28.000000" viewBox="0 0 28 28" fill="none" xmlns="http://www.w3.org/2000/svg" xmlns:xlink="http://www.w3.org/1999/xlink">
	<desc>
			Created with Pixso.
	</desc>
	<defs>
		<clipPath id="clip1_2648">
			<rect id="Component 8" rx="0.000000" width="27.500000" height="27.500000" transform="translate(0.250000 0.250000)" fill="white" fill-opacity="0"/>
		</clipPath>
	</defs>
	<rect id="Component 8" rx="0.000000" width="27.500000" height="27.500000" transform="translate(0.250000 0.250000)" fill="#FFFFFF" fill-opacity="0"/>
	<g clip-path="url(#clip1_2648)">
		<path id="Vector" d="M9.9 7C6.09 7 3 10.13 3 14C3 17.86 6.09 21 9.9 21L19.09 21C22.9 21 26 17.86 26 14C26 10.13 22.9 7 19.09 7L9.9 7ZM20.82 10.79C21.2 10.79 21.57 10.94 21.84 11.21C22.11 11.49 22.26 11.86 22.26 12.25C22.26 12.63 22.11 13 21.84 13.28C21.57 13.55 21.2 13.7 20.82 13.7C20.44 13.7 20.07 13.55 19.8 13.28C19.53 13 19.38 12.63 19.38 12.25C19.38 11.86 19.53 11.49 19.8 11.21C20.07 10.94 20.44 10.79 20.82 10.79ZM17.08 15.75C17.08 15.36 17.23 14.99 17.5 14.71C17.77 14.44 18.14 14.29 18.52 14.29C18.9 14.29 19.27 14.44 19.54 14.71C19.81 14.99 19.96 15.36 19.96 15.75C19.96 16.13 19.81 16.5 19.54 16.78C19.27 17.05 18.9 17.2 18.52 17.2C18.14 17.2 17.77 17.05 17.5 16.78C17.23 16.5 17.08 16.13 17.08 15.75ZM9.03 11.95C9.03 11.47 9.42 11.08 9.9 11.08C10.37 11.08 10.76 11.47 10.76 11.95L10.76 13.12L11.91 13.12C12.39 13.12 12.77 13.51 12.77 14C12.77 14.48 12.39 14.87 11.91 14.87L10.76 14.87L10.76 16.04C10.76 16.52 10.37 16.91 9.9 16.91C9.42 16.91 9.03 16.52 9.03 16.04L9.03 14.87L7.88 14.87C7.4 14.87 7.02 14.48 7.02 14C7.02 13.51 7.4 13.12 7.88 13.12L9.03 13.12L9.03 11.95Z" fill="#F9FBFF" fill-opacity="1.000000" fill-rule="nonzero"/>
	</g>
</svg>
