<svg width="28" height="28" viewBox="0 0 28 28" fill="none" xmlns="http://www.w3.org/2000/svg">
<path d="M10.0294 8.01222C9.3957 6.33541 9.62656 5.18347 10.6994 4.44493C11.7133 3.74355 12.8857 3.92006 13.9992 4.96052C15.0449 3.91077 16.2218 3.63207 17.4666 4.57499C18.4444 5.31353 18.5711 6.29825 17.9962 8.01222C19.3768 8.01222 20.7439 8.01222 22.1109 8.01222C23.5051 8.01222 23.994 8.51852 23.994 9.97237C23.994 10.4554 24.0075 10.9385 23.994 11.4169C23.9623 12.4202 23.4055 12.9869 22.4278 12.9916C16.8057 12.9916 11.1882 12.9916 5.5662 12.9916C4.6473 12.9916 4.07695 12.4481 4.02716 11.5145C3.99095 10.841 3.99095 10.1628 4.02716 9.4893C4.07695 8.56961 4.66994 8.02151 5.57978 8.01687C7.0464 8.00758 8.50849 8.01687 10.0249 8.01687L10.0294 8.01222ZM13.5873 8.00293C13.533 7.27833 13.5556 6.61875 13.4108 5.99633C13.2433 5.27637 12.4693 4.87691 11.7676 5.02555C11.057 5.17883 10.5681 5.81518 10.5907 6.56766C10.6134 7.31084 11.1611 7.94255 11.8853 7.99364C12.4059 8.0308 12.931 8.00293 13.5828 8.00293H13.5873ZM14.4972 8.01222C15.0268 8.01222 15.4975 8.02616 15.9638 8.01222C16.7922 7.98435 17.3942 7.38051 17.4168 6.56766C17.4395 5.75015 16.8601 5.07199 16.0724 5.00697C15.2939 4.94194 14.5968 5.50397 14.5108 6.33541C14.4564 6.86493 14.5017 7.40374 14.5017 8.01687L14.4972 8.01222Z" fill="#F9FBFF"/>
<path d="M16.4888 24V14.0646H23.0161C23.0161 14.2318 23.0161 14.4176 23.0161 14.6034C23.0161 17.1488 23.0161 19.6942 23.0161 22.2396C23.0161 23.4519 22.482 23.9954 21.2915 24C19.7117 24 18.1364 24 16.4888 24Z" fill="#F9FBFF"/>
<path d="M5.05455 14.0459H11.5185V23.9953C10.7264 23.9953 9.96138 23.9953 9.19639 23.9953C8.29559 23.9953 7.39028 24.0046 6.48948 23.9907C5.61585 23.9767 5.00476 23.4054 5.00023 22.5229C4.98213 19.7452 5.00023 16.9722 5.00023 14.1945C5.00023 14.1574 5.02287 14.1249 5.05003 14.0459H5.05455Z" fill="#F9FBFF"/>
<path d="M12.5867 14.0413H15.4203V23.9581H12.5867V14.0413Z" fill="#F9FBFF"/>
</svg>
