<svg width="28.000000" height="28.000000" viewBox="0 0 28 28" fill="none" xmlns="http://www.w3.org/2000/svg" xmlns:xlink="http://www.w3.org/1999/xlink">
	<defs>
		<clipPath id="clip1_2172">
			<rect id="Component 8" rx="0.000000" width="27.945312" height="27.945312" transform="translate(0.027344 0.027344)" fill="white" fill-opacity="0"/>
		</clipPath>
	</defs>
	<rect id="Component 8" rx="0.000000" width="27.945312" height="27.945312" transform="translate(0.027344 0.027344)" fill="#FFFFFF" fill-opacity="0"/>
	<g clip-path="url(#clip1_2172)">
		<path id="Vector" d="M24.99 12.98C24.99 13.61 24.47 14.1 23.88 14.1L22.77 14.1L22.79 19.73C22.79 19.83 22.78 19.92 22.77 20.02L22.77 20.59C22.77 21.37 22.15 22 21.38 22L20.83 22C20.79 22 20.75 22 20.71 21.99C20.67 22 20.62 22 20.57 22L19.44 21.99L18.61 21.99C17.84 21.99 17.22 21.36 17.22 20.59L17.22 19.74L17.22 17.49C17.22 16.87 16.72 16.37 16.11 16.37L13.88 16.37C13.27 16.37 12.77 16.87 12.77 17.49L12.77 19.74L12.77 20.59C12.77 21.36 12.15 21.99 11.38 21.99L10.55 21.99L9.44 21.99C9.39 21.99 9.34 21.99 9.28 21.98C9.24 21.99 9.2 21.99 9.16 21.99L8.6 21.99C7.84 21.99 7.21 21.36 7.21 20.59L7.21 16.65C7.21 16.62 7.21 16.58 7.22 16.55L7.22 14.1L6.11 14.1C5.48 14.1 5 13.61 5 12.97C5 12.66 5.1 12.37 5.34 12.13L14.24 4.28C14.49 4.03 14.76 4 15.01 4C15.25 4 15.53 4.07 15.74 4.24L24.61 12.13C24.89 12.38 25.02 12.66 24.99 12.98Z" fill="#F9FBFF" fill-opacity="1.000000" fill-rule="nonzero"/>
	</g>
</svg>
