<svg width="28.000000" height="28.000000" viewBox="0 0 28 28" fill="none" xmlns="http://www.w3.org/2000/svg" xmlns:xlink="http://www.w3.org/1999/xlink">
	<desc>
			Created with Pixso.
	</desc>
	<defs/>
	<path id="Vector" d="M14.54 17.18C14.27 16.86 13.72 16.86 13.45 17.18L11.16 19.74C10.55 20.44 10.55 21.48 11.16 22.18L13.44 24.74C13.58 24.9 13.78 24.99 13.99 24.99C14.21 24.99 14.41 24.91 14.54 24.74L16.83 22.18C17.45 21.48 17.45 20.44 16.83 19.74L14.55 17.18L14.54 17.18Z" fill="#F9FBFF" fill-opacity="1.000000" fill-rule="nonzero"/>
	<path id="Vector" d="M24.26 20.4L18.71 20.4C18.87 21.36 18.62 22.38 17.93 23.15L17.76 23.34L24.26 23.34C24.66 23.34 24.99 23.01 24.99 22.6L24.99 21.14C24.99 20.73 24.66 20.4 24.26 20.4Z" fill="#F9FBFF" fill-opacity="1.000000" fill-rule="nonzero"/>
	<path id="Vector" d="M9.29 20.4L3.73 20.4C3.33 20.4 3 20.73 3 21.14L3 22.6C3 23.01 3.33 23.34 3.73 23.34L10.23 23.34L10.07 23.15C9.38 22.38 9.12 21.36 9.29 20.4Z" fill="#F9FBFF" fill-opacity="1.000000" fill-rule="nonzero"/>
	<path id="Vector" d="M9.94 18.94C9.98 18.88 10.02 18.82 10.07 18.77L12.35 16.2C12.76 15.74 13.37 15.48 14 15.48C14.63 15.48 15.23 15.74 15.64 16.2L17.92 18.77C17.97 18.82 18 18.89 18.04 18.94L23.67 18.94L24.99 9.7C25.03 9.37 24.85 9.04 24.54 8.91C24.23 8.78 23.87 8.88 23.67 9.15L21.1 12.64L20.46 11.11C20.37 10.89 20.17 10.72 19.93 10.68C19.69 10.64 19.44 10.71 19.27 10.88L18.38 11.77L14.66 3.43C14.54 3.16 14.28 2.99 14 2.99C13.71 2.99 13.45 3.16 13.33 3.43L9.61 11.77L8.72 10.88C8.55 10.7 8.3 10.63 8.06 10.68C7.82 10.72 7.62 10.89 7.53 11.11L6.89 12.64L4.32 9.15C4.12 8.88 3.76 8.79 3.45 8.91C3.14 9.04 2.95 9.36 3 9.7L4.32 18.94L9.95 18.94L9.94 18.94ZM13.26 8.13C13.26 7.72 13.59 7.39 14 7.39C14.4 7.39 14.73 7.72 14.73 8.13L14.73 8.86C14.73 9.26 14.4 9.59 14 9.59C13.59 9.59 13.26 9.26 13.26 8.86L13.26 8.13ZM13.26 11.06C13.26 10.66 13.59 10.33 14 10.33C14.4 10.33 14.73 10.66 14.73 11.06L14.73 12.53C14.73 12.93 14.4 13.26 14 13.26C13.59 13.26 13.26 12.93 13.26 12.53L13.26 11.06Z" fill="#F9FBFF" fill-opacity="1.000000" fill-rule="nonzero"/>
</svg>
