<svg width="28.000000" height="28.000000" viewBox="0 0 28 28" fill="none" xmlns="http://www.w3.org/2000/svg" xmlns:xlink="http://www.w3.org/1999/xlink">
	<desc>
			Created with Pixso.
	</desc>
	<defs/>
	<path id="↳ Icon Color" d="M3.91 13.52C3.91 8.21 8.21 3.92 13.51 3.92C18.5 3.92 22.59 7.71 23.07 12.56C23.12 13.09 23.59 13.48 24.12 13.42C24.65 13.37 25.03 12.9 24.98 12.37C24.41 6.55 19.49 2 13.51 2C7.15 2 2 7.15 2 13.52C2 19.49 6.55 24.41 12.37 24.98C12.9 25.03 13.37 24.65 13.42 24.12C13.48 23.59 13.09 23.12 12.56 23.07C7.71 22.59 3.91 18.5 3.91 13.52ZM13.51 8.71C10.86 8.71 8.71 10.86 8.71 13.52C8.71 15.63 10.09 17.43 11.99 18.07C12.49 18.24 12.76 18.78 12.6 19.28C12.43 19.79 11.88 20.06 11.38 19.89C8.72 19 6.79 16.48 6.79 13.52C6.79 9.8 9.8 6.8 13.51 6.8C16.44 6.8 18.93 8.67 19.85 11.28C19.87 11.31 19.88 11.35 19.89 11.38C20.06 11.88 19.79 12.43 19.28 12.6C18.78 12.76 18.24 12.49 18.07 11.99C18.06 11.96 18.05 11.94 18.04 11.91C17.38 10.05 15.6 8.71 13.51 8.71ZM15.44 13.52C15.44 14.58 14.58 15.43 13.51 15.43C12.46 15.43 11.59 14.58 11.59 13.52C11.59 12.45 12.46 11.6 13.51 11.6C14.58 11.6 15.44 12.45 15.44 13.52ZM20.24 26C23.42 26 26 23.42 26 20.24C26 17.05 23.42 14.48 20.24 14.48C17.05 14.48 14.48 17.05 14.48 20.24C14.48 23.42 17.05 26 20.24 26ZM21.2 17.84C21.2 17.3 20.77 16.87 20.24 16.87C19.7 16.87 19.28 17.3 19.28 17.84L19.28 20.24C19.28 20.63 19.51 20.98 19.88 21.13L22.28 22.09C22.77 22.28 23.33 22.04 23.53 21.55C23.72 21.06 23.48 20.5 22.99 20.3L21.2 19.59L21.2 17.84Z" fill="#F9FBFF" fill-opacity="1.000000" fill-rule="evenodd"/>
</svg>
