<svg width="28.000000" height="28.000000" viewBox="0 0 28 28" fill="none" xmlns="http://www.w3.org/2000/svg" xmlns:xlink="http://www.w3.org/1999/xlink">
	<defs>
		<clipPath id="clip10_2044">
			<rect id="Component 9" rx="0.000000" width="27.000000" height="27.000000" transform="translate(0.500000 0.500000)" fill="white" fill-opacity="0"/>
		</clipPath>
	</defs>
	<rect id="Component 9" rx="0.000000" width="27.000000" height="27.000000" transform="translate(0.500000 0.500000)" fill="#FFFFFF" fill-opacity="0"/>
	<g clip-path="url(#clip10_2044)">
		<path id="Vector" d="M5.85 15.61L12.91 22.55C13.21 22.83 13.59 23 14 23C14.4 23 14.78 22.83 15.08 22.55L22.14 15.61C23.32 14.45 24 12.82 24 11.11L24 10.87C24 8 22.02 5.55 19.33 5.08C17.55 4.76 15.74 5.38 14.46 6.72L14 7.21L13.53 6.72C12.25 5.38 10.44 4.76 8.66 5.08C5.97 5.55 4 8 4 10.87L4 11.11C4 12.82 4.67 14.45 5.85 15.61Z" fill="#F9FBFF" fill-opacity="1.000000" fill-rule="nonzero"/>
	</g>
</svg>
