<svg width="28.000000" height="28.000000" viewBox="0 0 28 28" fill="none" xmlns="http://www.w3.org/2000/svg" xmlns:xlink="http://www.w3.org/1999/xlink">
	<desc>
			Created with Pixso.
	</desc>
	<defs>
		<clipPath id="clip10_5088">
			<rect id="Component 8" rx="0.000000" width="27.000000" height="27.000000" transform="translate(0.500000 0.500000)" fill="white" fill-opacity="0"/>
		</clipPath>
	</defs>
	<rect id="Component 8" rx="0.000000" width="27.000000" height="27.000000" transform="translate(0.500000 0.500000)" fill="#FFFFFF" fill-opacity="0"/>
	<g clip-path="url(#clip10_5088)">
		<path id="Vector" d="M22.55 7.56C23.14 6.97 23.14 6.02 22.55 5.43C21.97 4.85 21.02 4.85 20.43 5.43L5.43 20.43C4.85 21.02 4.85 21.97 5.43 22.55C6.02 23.14 6.97 23.14 7.56 22.55L22.55 7.56ZM11 8C11 7.2 10.68 6.44 10.12 5.88C9.56 5.31 8.79 5 8 5C7.2 5 6.44 5.31 5.88 5.88C5.32 6.44 5 7.2 5 8C5 8.79 5.32 9.56 5.88 10.12C6.44 10.68 7.2 11 8 11C8.79 11 9.56 10.68 10.12 10.12C10.68 9.56 11 8.79 11 8ZM23 20C23 19.2 22.68 18.44 22.12 17.87C21.55 17.31 20.79 17 20 17C19.2 17 18.44 17.31 17.87 17.87C17.31 18.44 17 19.2 17 20C17 20.79 17.31 21.55 17.87 22.12C18.44 22.68 19.2 23 20 23C20.79 23 21.55 22.68 22.12 22.12C22.68 21.55 23 20.79 23 20Z" fill="#4D4F59" fill-opacity="1.000000" fill-rule="nonzero"/>
	</g>
</svg>
