<svg width="28.000000" height="28.000000" viewBox="0 0 28 28" fill="none" xmlns="http://www.w3.org/2000/svg" xmlns:xlink="http://www.w3.org/1999/xlink">
	<desc>
			Created with Pixso.
	</desc>
	<defs>
		<clipPath id="clip1_1716">
			<rect id="Component 9" rx="0.000000" width="27.000000" height="27.000000" transform="translate(0.500000 0.500000)" fill="white" fill-opacity="0"/>
		</clipPath>
	</defs>
	<rect id="Component 9" rx="0.000000" width="27.000000" height="27.000000" transform="translate(0.500000 0.500000)" fill="#FFFFFF" fill-opacity="0"/>
	<g clip-path="url(#clip1_1716)">
		<path id="Vector" d="M10.1 9C10.1 7.34 11.5 6 13.22 6L14.77 6C16.49 6 17.89 7.34 17.89 9L17.89 9.17C17.89 10.19 17.34 11.14 16.46 11.69L14.41 12.96C13.18 13.72 12.44 15.03 12.44 16.43L12.44 16.49C12.44 17.32 13.14 17.99 14 17.99C14.85 17.99 15.55 17.32 15.55 16.49L15.55 16.43C15.55 16.04 15.75 15.69 16.08 15.48L18.14 14.21C19.92 13.1 21 11.21 21 9.16L21 8.99C21 5.68 18.21 3 14.77 3L13.22 3C9.78 3 7 5.69 7 9C7 9.83 7.69 10.5 8.55 10.5C9.41 10.5 10.1 9.83 10.1 9ZM14 24C14.51 24 15.01 23.8 15.37 23.45C15.73 23.09 15.94 22.62 15.94 22.12C15.94 21.62 15.73 21.15 15.37 20.79C15.01 20.44 14.51 20.25 14 20.25C13.48 20.25 12.98 20.44 12.62 20.79C12.26 21.15 12.05 21.62 12.05 22.12C12.05 22.62 12.26 23.09 12.62 23.45C12.98 23.8 13.48 24 14 24Z" fill="#4D4F59" fill-opacity="1.000000" fill-rule="nonzero"/>
	</g>
</svg>
