<svg width="28" height="28" viewBox="0 0 28 28" fill="none" xmlns="http://www.w3.org/2000/svg">
<path d="M10.5354 22.9939C9.27476 22.9939 8.01415 22.9984 6.749 22.9939C5.11202 22.9849 3.96024 21.7831 4.00105 20.1477C4.06907 17.279 6.46332 14.8395 9.34278 14.7762C10.744 14.7446 12.1633 14.591 13.5373 15.1015C15.6594 15.8966 17.1649 17.9928 17.1831 20.2562C17.1967 21.7786 16.0267 22.9803 14.4895 22.9939C13.17 23.0074 11.8549 22.9939 10.5354 22.9939Z" fill="#F9FBFF"/>
<path d="M10.5762 14.2297C8.01872 14.2251 5.94189 12.156 5.95096 9.61259C5.95549 7.09172 8.07314 4.99099 10.6034 5.00003C13.1564 5.00906 15.2151 7.08268 15.2106 9.63518C15.206 12.2012 13.1519 14.2342 10.5762 14.2297Z" fill="#F9FBFF"/>
<path d="M17.1694 22.9261C18.9787 20.5182 18.1081 18.2955 16.6479 16.0456C17.0016 15.9553 17.3372 15.8062 17.6728 15.7972C18.8518 15.7701 20.0489 15.6752 21.2143 15.8243C23.4181 16.1044 25.0913 18.2412 24.9961 20.4549C24.9372 21.7696 23.8625 22.9351 22.561 22.9713C20.7926 23.021 19.0241 22.9848 17.2556 22.9803C17.2284 22.9803 17.2012 22.9442 17.1694 22.9261Z" fill="#F9FBFF"/>
<path d="M19.4004 7.87329C21.3639 7.94106 22.9147 9.44545 23.0417 11.4468C23.1596 13.3081 21.6858 14.9661 19.7133 15.1965C17.8995 15.4088 16.1128 14.049 15.7954 12.2012C15.7637 12.0115 15.8136 11.7992 15.8589 11.6049C15.9405 11.239 16.1174 10.8821 16.131 10.5207C16.1854 9.16535 17.115 8.58257 18.1987 8.14435C18.5751 7.99075 19.0014 7.95913 19.4004 7.87329Z" fill="#F9FBFF"/>
</svg>
