<svg width="28.000000" height="28.000000" viewBox="0 0 28 28" fill="none" xmlns="http://www.w3.org/2000/svg" xmlns:xlink="http://www.w3.org/1999/xlink">
	<defs>
		<clipPath id="clip23_5167">
			<rect id="Component 9" rx="0.000000" width="27.000000" height="27.000000" transform="translate(0.500000 0.500000)" fill="white" fill-opacity="0"/>
		</clipPath>
	</defs>
	<rect id="Component 9" rx="0.000000" width="27.000000" height="27.000000" transform="translate(0.500000 0.500000)" fill="#FFFFFF" fill-opacity="0"/>
	<g clip-path="url(#clip23_5167)">
		<path id="Vector" d="M14 6C14.6 6 15.09 6.44 15.09 7L15.09 9L19.22 9C20.59 9 21.7 10 21.7 11.25L21.7 19.75C21.7 20.99 20.59 22 19.22 22L8.77 22C7.4 22 6.29 20.99 6.29 19.75L6.29 11.25C6.29 10 7.4 9 8.77 9L12.9 9L12.9 7C12.9 6.44 13.39 6 14 6ZM10.15 18C9.84 18 9.59 18.22 9.59 18.5C9.59 18.77 9.84 19 10.15 19L11.25 19C11.55 19 11.79 18.77 11.79 18.5C11.79 18.22 11.55 18 11.25 18L10.15 18ZM13.45 18C13.14 18 12.9 18.22 12.9 18.5C12.9 18.77 13.14 19 13.45 19L14.54 19C14.85 19 15.09 18.77 15.09 18.5C15.09 18.22 14.85 18 14.54 18L13.45 18ZM16.75 18C16.44 18 16.2 18.22 16.2 18.5C16.2 18.77 16.44 19 16.75 19L17.84 19C18.15 19 18.4 18.77 18.4 18.5C18.4 18.22 18.15 18 17.84 18L16.75 18ZM12.07 14C12.07 13.66 11.92 13.35 11.67 13.11C11.41 12.88 11.06 12.75 10.7 12.75C10.33 12.75 9.98 12.88 9.72 13.11C9.46 13.35 9.32 13.66 9.32 14C9.32 14.33 9.46 14.64 9.72 14.88C9.98 15.11 10.33 15.25 10.7 15.25C11.06 15.25 11.41 15.11 11.67 14.88C11.92 14.64 12.07 14.33 12.07 14ZM17.29 15.25C17.66 15.25 18.01 15.11 18.27 14.88C18.53 14.64 18.67 14.33 18.67 14C18.67 13.66 18.53 13.35 18.27 13.11C18.01 12.88 17.66 12.75 17.29 12.75C16.93 12.75 16.58 12.88 16.32 13.11C16.07 13.35 15.92 13.66 15.92 14C15.92 14.33 16.07 14.64 16.32 14.88C16.58 15.11 16.93 15.25 17.29 15.25ZM4.65 13L5.2 13L5.2 19L4.65 19C3.73 19 3 18.32 3 17.5L3 14.5C3 13.67 3.73 13 4.65 13ZM23.34 13C24.26 13 25 13.67 25 14.5L25 17.5C25 18.32 24.26 19 23.34 19L22.79 19L22.79 13L23.34 13Z" fill="#F9FBFF" fill-opacity="1.000000" fill-rule="nonzero"/>
	</g>
</svg>
