<svg width="28" height="28" viewBox="0 0 28 28" fill="none" xmlns="http://www.w3.org/2000/svg">
<path d="M24 12.8911C23.1593 12.737 22.3803 12.6138 21.6144 12.4377C21.4692 12.4025 21.2799 12.1868 21.2579 12.0284C20.7738 9.02662 18.6215 6.65426 15.6945 5.91922C11.6232 4.8981 7.33627 7.78542 6.77289 11.9492C6.72007 12.3453 6.60123 12.4773 6.20511 12.4685C5.82658 12.4641 5.43926 12.5213 5.07394 12.6182C4.73063 12.7106 4.40933 12.8911 4 13.0671C4.15405 9.54158 5.5713 6.72908 8.45423 4.79686C11.7729 2.57415 15.3204 2.4025 18.8107 4.34352C22.1514 6.20091 23.7931 9.18507 24 12.8911Z" fill="#F9FBFF"/>
<path d="M21.3416 13.8726C22.9965 13.6438 23.9736 14.4624 23.9824 16.0249C23.9868 16.8304 23.9824 17.6314 23.9824 18.4369C23.9824 19.1983 23.6523 19.7881 23.0009 20.1534C22.706 20.3207 22.6444 20.5144 22.6532 20.8092C22.6664 21.2846 22.662 21.76 22.6532 22.2353C22.64 23.6482 21.8565 24.4492 20.4481 24.458C19.0969 24.4668 17.7456 24.4712 16.3944 24.4536C16.0555 24.4536 15.8442 24.524 15.655 24.8497C15.1928 25.6464 14.2993 25.9545 13.4278 25.6948C12.5872 25.4439 12.0194 24.6957 12.015 23.8198C12.0062 22.9307 12.5872 22.1517 13.4454 21.8964C14.2905 21.6455 15.206 21.98 15.6682 22.7679C15.8398 23.0628 16.0203 23.164 16.3548 23.1552C17.6884 23.1376 19.022 23.1508 20.3557 23.1464C21.1259 23.1464 21.3372 22.9395 21.3372 22.1781C21.3372 19.6209 21.3372 17.0636 21.3372 14.5064C21.3372 14.3084 21.3372 14.1103 21.3372 13.877L21.3416 13.8726Z" fill="#F9FBFF"/>
<path d="M8.00985 17.1251C8.00985 16.0688 7.99665 15.0125 8.00985 13.9517C8.01866 13.1947 8.37957 12.6929 8.97376 12.5301C9.83644 12.3012 10.6331 12.8778 10.6463 13.8285C10.6771 16.016 10.6727 18.2035 10.6463 20.391C10.6375 21.214 10.0653 21.7818 9.33468 21.7818C8.57323 21.7818 8.02306 21.214 8.00545 20.347C7.98345 19.273 8.00105 18.1947 8.00105 17.1207L8.00985 17.1251Z" fill="#F9FBFF"/>
<path d="M17.354 17.09C17.354 16.0512 17.3452 15.0125 17.354 13.9738C17.3672 13.0495 17.8778 12.4905 18.67 12.4949C19.4579 12.4949 19.9905 13.0759 19.9949 13.9826C20.0037 16.0953 20.0037 18.2123 19.9949 20.325C19.9905 21.1833 19.4447 21.7731 18.692 21.7863C17.913 21.8039 17.3672 21.2185 17.354 20.3162C17.3408 19.2423 17.354 18.1639 17.354 17.09Z" fill="#F9FBFF"/>
<path d="M6.63649 13.8725V20.3558C5.34248 20.7343 4.08367 19.8672 4.03526 18.5512C4.00005 17.7105 4.02205 16.8698 4.02646 16.0292C4.03526 14.4623 5.01677 13.6304 6.64089 13.8681L6.63649 13.8725Z" fill="#F9FBFF"/>
</svg>
