<svg width="16.000000" height="16.000000" viewBox="0 0 16 16" fill="none" xmlns="http://www.w3.org/2000/svg" xmlns:xlink="http://www.w3.org/1999/xlink">
	<desc>
			Created with Pixso.
	</desc>
	<defs/>
	<path id="Vector" d="M12.16 4.44C12.32 4.27 12.32 4 12.16 3.83C11.99 3.67 11.72 3.67 11.55 3.83L10.69 4.69L10.44 4.94L9.89 4.39C9.55 4.05 9.01 4.05 8.67 4.39L8.25 4.82C8.21 4.85 8.18 4.89 8.16 4.93C7.58 4.7 6.94 4.57 6.28 4.57C3.44 4.57 1.14 6.87 1.14 9.71C1.14 12.54 3.44 14.85 6.28 14.85C9.12 14.85 11.42 12.54 11.42 9.71C11.42 9.05 11.29 8.41 11.06 7.83C11.1 7.81 11.14 7.78 11.17 7.74L11.6 7.32C11.94 6.98 11.94 6.44 11.6 6.1L11.05 5.55L11.3 5.3L12.16 4.44ZM6.28 7.14C4.86 7.14 3.71 8.29 3.71 9.71C3.71 9.95 3.52 10.14 3.28 10.14C3.04 10.14 2.85 9.95 2.85 9.71C2.85 7.82 4.39 6.28 6.28 6.28C6.52 6.28 6.71 6.47 6.71 6.71C6.71 6.95 6.52 7.14 6.28 7.14Z" fill="#F9FBFF" fill-opacity="1.000000" fill-rule="nonzero"/>
	<path id="Vector" d="M13.43 5.13C13.27 4.96 13 4.96 12.83 5.13C12.66 5.3 12.66 5.57 12.83 5.73L13.26 6.16C13.34 6.25 13.45 6.29 13.56 6.29C13.67 6.29 13.78 6.25 13.86 6.16C14.03 6 14.03 5.72 13.86 5.56L13.43 5.13Z" fill="#F9FBFF" fill-opacity="1.000000" fill-rule="nonzero"/>
	<path id="Vector" d="M10.26 3.16C10.34 3.25 10.45 3.29 10.56 3.29C10.67 3.29 10.78 3.25 10.86 3.16C11.03 3 11.03 2.72 10.86 2.56L10.43 2.13C10.27 1.96 10 1.96 9.83 2.13C9.66 2.3 9.66 2.57 9.83 2.73L10.26 3.16Z" fill="#F9FBFF" fill-opacity="1.000000" fill-rule="nonzero"/>
	<path id="Vector" d="M11.85 2.85C12.09 2.85 12.28 2.66 12.28 2.42L12.28 1.57C12.28 1.33 12.09 1.14 11.85 1.14C11.61 1.14 11.42 1.33 11.42 1.57L11.42 2.42C11.42 2.66 11.61 2.85 11.85 2.85Z" fill="#F9FBFF" fill-opacity="1.000000" fill-rule="nonzero"/>
	<path id="Vector" d="M14.42 3.72L13.57 3.72C13.33 3.72 13.14 3.92 13.14 4.15C13.14 4.39 13.33 4.58 13.57 4.58L14.42 4.58C14.66 4.58 14.85 4.39 14.85 4.15C14.85 3.92 14.66 3.72 14.42 3.72Z" fill="#F9FBFF" fill-opacity="1.000000" fill-rule="nonzero"/>
	<path id="Vector" d="M12.84 3.16C12.93 3.25 13.04 3.29 13.15 3.29C13.26 3.29 13.37 3.25 13.45 3.16L14.31 2.31C14.47 2.14 14.47 1.87 14.31 1.7C14.14 1.53 13.87 1.53 13.7 1.7L12.84 2.56C12.68 2.72 12.68 3 12.84 3.16Z" fill="#F9FBFF" fill-opacity="1.000000" fill-rule="nonzero"/>
</svg>
