<svg width="28.000000" height="28.000000" viewBox="0 0 28 28" fill="none" xmlns="http://www.w3.org/2000/svg" xmlns:xlink="http://www.w3.org/1999/xlink">
	<desc>
			Created with Pixso.
	</desc>
	<defs>
		<clipPath id="clip36_1958">
			<rect id="Component 9" rx="0.000000" width="27.000000" height="27.000000" transform="translate(0.500000 0.500000)" fill="white" fill-opacity="0"/>
		</clipPath>
	</defs>
	<rect id="Component 9" rx="0.000000" width="27.000000" height="27.000000" transform="translate(0.500000 0.500000)" fill="#FFFFFF" fill-opacity="0"/>
	<g clip-path="url(#clip36_1958)">
		<path id="Vector" d="M18.27 5L9.72 5C8.71 5 7.88 5.76 7.92 6.69C7.92 6.88 7.93 7.06 7.94 7.25L3.91 7.25C3.41 7.25 3 7.62 3 8.09C3 11.34 4.28 13.61 6 15.14C7.69 16.66 9.75 17.42 11.27 17.81C12.16 18.04 12.77 18.72 12.77 19.41C12.77 20.15 12.12 20.75 11.33 20.75L10.33 20.75C9.65 20.75 9.1 21.25 9.1 21.87C9.1 22.49 9.65 23 10.33 23L17.66 23C18.34 23 18.89 22.49 18.89 21.87C18.89 21.25 18.34 20.75 17.66 20.75L16.66 20.75C15.87 20.75 15.22 20.15 15.22 19.41C15.22 18.72 15.82 18.03 16.72 17.81C18.25 17.42 20.31 16.66 22 15.14C23.71 13.61 25 11.34 25 8.09C25 7.62 24.58 7.25 24.08 7.25L20.05 7.25C20.06 7.06 20.07 6.88 20.07 6.69C20.11 5.76 19.28 5 18.27 5ZM4.86 8.93L8.08 8.93C8.43 12.1 9.2 14.22 10.07 15.63C9.12 15.25 8.13 14.7 7.27 13.94C6.05 12.84 5.06 11.26 4.87 8.93L4.86 8.93ZM20.72 13.94C19.87 14.7 18.88 15.25 17.92 15.63C18.79 14.22 19.56 12.1 19.91 8.93L23.13 8.93C22.94 11.26 21.94 12.84 20.73 13.94L20.72 13.94Z" fill="#F9FBFF" fill-opacity="1.000000" fill-rule="nonzero"/>
	</g>
</svg>
