<svg width="28.000000" height="28.000000" viewBox="0 0 28 28" fill="none" xmlns="http://www.w3.org/2000/svg" xmlns:xlink="http://www.w3.org/1999/xlink">
	<desc>
			Created with Pixso.
	</desc>
	<defs>
		<clipPath id="clip20_2643">
			<rect id="Property 1=юмани" rx="0.000000" width="27.000000" height="27.000000" transform="translate(0.500000 0.500000)" fill="white" fill-opacity="0"/>
		</clipPath>
	</defs>
	<rect id="Property 1=юмани" rx="0.000000" width="27.000000" height="27.000000" transform="translate(0.500000 0.500000)" fill="#FFFFFF" fill-opacity="0"/>
	<g clip-path="url(#clip20_2643)">
		<path id="Vector" d="M17.5 5C12.2 5 8 9.04 8 14C8 19.01 12.26 23 17.5 23C22.73 23 27 18.95 27 14C27.05 9.04 22.73 5 17.5 5ZM17.5 17.36C15.57 17.36 13.95 15.82 13.95 14C13.95 12.17 15.57 10.63 17.5 10.63C19.42 10.63 21.04 12.17 21.04 14C21.04 15.82 19.48 17.36 17.5 17.36Z" fill="#8B3FFD" fill-opacity="1.000000" fill-rule="nonzero"/>
		<path id="Vector" d="M8 8L8 21L4.46 21L0 8L8 8Z" fill="#8B3FFD" fill-opacity="1.000000" fill-rule="nonzero"/>
	</g>
</svg>
