<svg width="28.000000" height="28.000000" viewBox="0 0 28 28" fill="none" xmlns="http://www.w3.org/2000/svg" xmlns:xlink="http://www.w3.org/1999/xlink">
	<desc>
			Created with Pixso.
	</desc>
	<defs/>
	<path id="Vector" d="M14 7.48L15.96 5.52L15.96 3L12.03 3L12.04 5.52L14 7.48Z" fill="#F9FBFF" fill-opacity="1.000000" fill-rule="evenodd"/>
	<path id="Vector" d="M11.61 15.67L4 15.67C4.14 17.96 5.05 20.03 6.47 21.64L11.85 16.26C11.74 16.08 11.66 15.88 11.61 15.67Z" fill="#F9FBFF" fill-opacity="1.000000" fill-rule="evenodd"/>
	<path id="Vector" d="M7.38 22.56C9 23.98 11.07 24.88 13.35 25.03L13.35 17.42C13.15 17.36 12.95 17.28 12.76 17.18L7.38 22.56Z" fill="#F9FBFF" fill-opacity="1.000000" fill-rule="evenodd"/>
	<path id="Vector" d="M14.83 14.19C14.6 13.96 14.3 13.85 14 13.85C13.69 13.85 13.39 13.96 13.16 14.19C12.7 14.65 12.7 15.4 13.16 15.87C13.62 16.33 14.37 16.33 14.83 15.87C15.29 15.4 15.29 14.65 14.83 14.19Z" fill="#F9FBFF" fill-opacity="1.000000" fill-rule="evenodd"/>
	<path id="Vector" d="M11.85 13.8L6.47 8.41C5.05 10.03 4.14 12.1 4 14.38L11.61 14.38C11.66 14.18 11.74 13.98 11.85 13.8Z" fill="#F9FBFF" fill-opacity="1.000000" fill-rule="evenodd"/>
	<path id="Vector" d="M14.64 17.42L14.64 25.03C16.92 24.88 19 23.97 20.61 22.56L15.23 17.18C15.04 17.28 14.84 17.36 14.64 17.42Z" fill="#F9FBFF" fill-opacity="1.000000" fill-rule="evenodd"/>
	<path id="Vector" d="M16.14 16.26L21.52 21.64C22.94 20.03 23.85 17.96 23.99 15.67L16.38 15.67C16.33 15.88 16.25 16.08 16.14 16.26Z" fill="#F9FBFF" fill-opacity="1.000000" fill-rule="evenodd"/>
	<path id="Vector" d="M13.35 12.64L13.35 8.66L10.75 6.06L10.75 5.55C9.5 5.97 8.36 6.65 7.38 7.5L12.76 12.88C12.95 12.77 13.15 12.69 13.35 12.64Z" fill="#F9FBFF" fill-opacity="1.000000" fill-rule="evenodd"/>
	<path id="Vector" d="M14.64 12.64C14.84 12.69 15.04 12.78 15.23 12.88L20.61 7.5C19.64 6.65 18.5 5.98 17.25 5.55L17.25 6.05L14.64 8.66L14.64 12.64Z" fill="#F9FBFF" fill-opacity="1.000000" fill-rule="evenodd"/>
	<path id="Vector" d="M16.38 14.38L23.99 14.38C23.85 12.1 22.94 10.03 21.52 8.42L16.14 13.8C16.25 13.98 16.33 14.18 16.38 14.38Z" fill="#F9FBFF" fill-opacity="1.000000" fill-rule="evenodd"/>
</svg>
